{
    "asset" : {
        "generator" : "Khronos glTF Blender I/O v1.6.16",
        "version" : "2.0"
    },
    "scene" : 0,
    "scenes" : [
        {
            "name" : "Scene",
            "nodes" : [
                0
            ]
        }
    ],
    "nodes" : [
        {
            "mesh" : 0,
            "name" : "Target",
            "rotation" : [
                0,
                1,
                0,
                0
            ],
            "scale" : [
                0.4000000059604645,
                0.4000000059604645,
                0.4000000059604645
            ],
            "translation" : [
                0.0003349376784171909,
                1.0778995752334595,
                -0.1328267753124237
            ]
        }
    ],
    "materials" : [
        {
            "doubleSided" : true,
            "name" : "WoodLegs",
            "pbrMetallicRoughness" : {
                "baseColorFactor" : [
                    0.18446461856365204,
                    0.06008376553654671,
                    0.02158232033252716,
                    1
                ],
                "metallicFactor" : 0,
                "roughnessFactor" : 0.5
            }
        },
        {
            "doubleSided" : true,
            "name" : "Black",
            "pbrMetallicRoughness" : {
                "baseColorFactor" : [
                    0,
                    0,
                    0,
                    1
                ],
                "metallicFactor" : 0,
                "roughnessFactor" : 0.5
            }
        },
        {
            "doubleSided" : true,
            "name" : "Target",
            "pbrMetallicRoughness" : {
                "baseColorTexture" : {
                    "index" : 0
                },
                "metallicFactor" : 0,
                "roughnessFactor" : 0.5
            }
        }
    ],
    "meshes" : [
        {
            "name" : "Cube.009",
            "primitives" : [
                {
                    "attributes" : {
                        "POSITION" : 0,
                        "NORMAL" : 1,
                        "TEXCOORD_0" : 2
                    },
                    "indices" : 3,
                    "material" : 0
                },
                {
                    "attributes" : {
                        "POSITION" : 4,
                        "NORMAL" : 5,
                        "TEXCOORD_0" : 6
                    },
                    "indices" : 7,
                    "material" : 1
                },
                {
                    "attributes" : {
                        "POSITION" : 8,
                        "NORMAL" : 9,
                        "TEXCOORD_0" : 10
                    },
                    "indices" : 11,
                    "material" : 2
                }
            ]
        }
    ],
    "textures" : [
        {
            "sampler" : 0,
            "source" : 0
        }
    ],
    "images" : [
        {
            "bufferView" : 12,
            "mimeType" : "image/png",
            "name" : "80_cm_archery_target"
        }
    ],
    "accessors" : [
        {
            "bufferView" : 0,
            "componentType" : 5126,
            "count" : 108,
            "max" : [
                1.7547261714935303,
                0.8559162616729736,
                1.543041467666626
            ],
            "min" : [
                -1.752384901046753,
                -2.671078681945801,
                -0.3194328248500824
            ],
            "type" : "VEC3"
        },
        {
            "bufferView" : 1,
            "componentType" : 5126,
            "count" : 108,
            "type" : "VEC3"
        },
        {
            "bufferView" : 2,
            "componentType" : 5126,
            "count" : 108,
            "type" : "VEC2"
        },
        {
            "bufferView" : 3,
            "componentType" : 5123,
            "count" : 108,
            "type" : "SCALAR"
        },
        {
            "bufferView" : 4,
            "componentType" : 5126,
            "count" : 1172,
            "max" : [
                1.2199575901031494,
                1.3198034763336182,
                0.377489298582077
            ],
            "min" : [
                -1.2200427055358887,
                -1.152515172958374,
                -0.445282906293869
            ],
            "type" : "VEC3"
        },
        {
            "bufferView" : 5,
            "componentType" : 5126,
            "count" : 1172,
            "type" : "VEC3"
        },
        {
            "bufferView" : 6,
            "componentType" : 5126,
            "count" : 1172,
            "type" : "VEC2"
        },
        {
            "bufferView" : 7,
            "componentType" : 5123,
            "count" : 1182,
            "type" : "SCALAR"
        },
        {
            "bufferView" : 8,
            "componentType" : 5126,
            "count" : 390,
            "max" : [
                1.2199575901031494,
                1.3198034763336182,
                -0.016279548406600952
            ],
            "min" : [
                -1.2200427055358887,
                -1.0821868181228638,
                -0.445282906293869
            ],
            "type" : "VEC3"
        },
        {
            "bufferView" : 9,
            "componentType" : 5126,
            "count" : 390,
            "type" : "VEC3"
        },
        {
            "bufferView" : 10,
            "componentType" : 5126,
            "count" : 390,
            "type" : "VEC2"
        },
        {
            "bufferView" : 11,
            "componentType" : 5123,
            "count" : 390,
            "type" : "SCALAR"
        }
    ],
    "bufferViews" : [
        {
            "buffer" : 0,
            "byteLength" : 1296,
            "byteOffset" : 0
        },
        {
            "buffer" : 0,
            "byteLength" : 1296,
            "byteOffset" : 1296
        },
        {
            "buffer" : 0,
            "byteLength" : 864,
            "byteOffset" : 2592
        },
        {
            "buffer" : 0,
            "byteLength" : 216,
            "byteOffset" : 3456
        },
        {
            "buffer" : 0,
            "byteLength" : 14064,
            "byteOffset" : 3672
        },
        {
            "buffer" : 0,
            "byteLength" : 14064,
            "byteOffset" : 17736
        },
        {
            "buffer" : 0,
            "byteLength" : 9376,
            "byteOffset" : 31800
        },
        {
            "buffer" : 0,
            "byteLength" : 2364,
            "byteOffset" : 41176
        },
        {
            "buffer" : 0,
            "byteLength" : 4680,
            "byteOffset" : 43540
        },
        {
            "buffer" : 0,
            "byteLength" : 4680,
            "byteOffset" : 48220
        },
        {
            "buffer" : 0,
            "byteLength" : 3120,
            "byteOffset" : 52900
        },
        {
            "buffer" : 0,
            "byteLength" : 780,
            "byteOffset" : 56020
        },
        {
            "buffer" : 0,
            "byteLength" : 596993,
            "byteOffset" : 56800
        }
    ],
    "samplers" : [
        {
            "magFilter" : 9729,
            "minFilter" : 9987
        }
    ],
    "buffers" : [
        {
            "byteLength" : 653796,
            "uri" : "data:application/octet-stream;base64,"
        }
    ]
}
